<?xml version="1.0" encoding="utf-8"?>
<!-- Generator: Adobe Illustrator 27.5.0, SVG Export Plug-In . SVG Version: 6.00 Build 0)  -->
<svg version="1.1" id="Layer_1" xmlns="http://www.w3.org/2000/svg" xmlns:xlink="http://www.w3.org/1999/xlink" x="0px" y="0px"
	 viewBox="0 0 20 20" style="enable-background:new 0 0 20 20;" xml:space="preserve">
<style type="text/css">
	.st0{fill:#0B0C0C;}
	.st1{fill:none;stroke:#0060CD;stroke-width:1.863;stroke-miterlimit:10;}
</style>
<path class="st0" d="M16.7,0.6c-0.1,0.1-0.1,0.1-0.1,0.3C16.3,2.1,16,3.2,16,4.4c0,0.5,0,1.1,0.3,1.6c0.3,0.5,0.9,0.9,1.5,1
	c0.5,0.1,1.1,0,1.5-0.4c0.6-0.5,0.6-1.4,0.4-2.2C19.5,3.6,19,2.8,18.5,2c-0.2-0.3-0.5-0.7-0.8-0.9C17.4,0.9,17,0.4,16.7,0.6z"/>
<circle class="st1" cx="5.2" cy="11.8" r="3.5"/>
<circle class="st1" cx="14.8" cy="11.8" r="3.5"/>
</svg>
